<svg version="1.0" xmlns="http://www.w3.org/2000/svg" width="1706.667" height="1574.667" viewBox="0 0 1280 1181"><path d="M632.7 51.8c-6 18-16.1 48.9-22.7 68.7-6.5 19.8-23.3 70.9-37.3 113.5-14.1 42.6-36.7 111.4-50.3 152.7L497.6 462H261.8c-129.7 0-235.8.3-235.8.7 0 .5 17 13 37.8 27.9 20.7 14.9 105.7 75.8 188.7 135.3 83.1 59.6 151.8 109.1 152.8 110 2 1.9 5.5-9.4-42 134.6-18.7 57-34.4 104.7-62.8 191-14.1 42.9-28.6 86.9-32.2 97.8-3.6 10.9-6.3 20.1-6 20.4.7.6-23.6 18 191.2-136.2C554.7 970.9 639 910.4 640.7 909.2l3.3-2.3 76.2 54.8c244.7 175.8 305.3 219.1 305.6 218.8.2-.2-4.6-15.3-10.6-33.7-6.1-18.3-21.6-65.5-34.6-104.8-51.1-155.6-71.2-216.8-81.1-247-14.5-44-18.5-56.3-18.5-57.5 0-.6 85.5-62.3 190-137.3 104.5-75 190-136.8 190-137.3s-90.9-1-235.7-1.1l-235.6-.3-16.4-50c-9-27.5-27.2-82.6-40.3-122.5-13.1-39.9-38.3-116.6-56-170.5-17.7-53.9-32.5-98.3-32.9-98.7-.4-.5-5.5 13.9-11.4 32z"/></svg>